<?xml version="1.0" standalone="no"?>
<!DOCTYPE svg PUBLIC "-//W3C//DTD SVG 20010904//EN"
 "http://www.w3.org/TR/2001/REC-SVG-20010904/DTD/svg10.dtd">
<svg version="1.0" xmlns="http://www.w3.org/2000/svg"
 width="957.000000pt" height="957.000000pt" viewBox="0 0 957.000000 957.000000"
 preserveAspectRatio="xMidYMid meet">
<metadata>
Created by potrace 1.14, written by Peter Selinger 2001-2017
</metadata>
<g transform="translate(0.000000,957.000000) scale(0.100000,-0.100000)"
fill="#000000" stroke="none">
<path d="M4505 9499 c-343 -21 -676 -82 -1036 -189 -104 -31 -338 -115 -430
-156 -31 -13 -59 -24 -61 -24 -20 0 -381 -185 -524 -268 -119 -70 -362 -235
-445 -302 -30 -25 -68 -54 -83 -65 -25 -18 -62 -47 -120 -95 -178 -148 -540
-528 -663 -696 -11 -16 -45 -60 -74 -99 -46 -62 -125 -176 -154 -224 -6 -9
-31 -49 -58 -89 -26 -40 -47 -75 -47 -77 0 -2 -14 -28 -31 -57 -51 -85 -184
-355 -223 -453 -20 -49 -41 -99 -46 -110 -5 -11 -29 -74 -54 -140 -78 -213
-139 -431 -181 -640 -14 -71 -30 -152 -35 -180 -9 -46 -25 -176 -50 -400 -40
-364 -11 -949 66 -1355 82 -428 194 -783 361 -1140 46 -99 121 -247 144 -285
10 -16 22 -37 26 -45 49 -105 282 -450 402 -596 103 -125 121 -146 216 -250
147 -161 384 -380 544 -502 31 -24 65 -51 76 -60 39 -33 131 -99 190 -136 33
-21 89 -58 125 -81 292 -188 649 -359 1005 -481 72 -25 146 -49 165 -54 19 -5
78 -20 130 -34 113 -30 346 -78 485 -100 413 -65 996 -62 1387 9 307 55 686
157 853 230 17 7 48 18 70 25 95 30 428 191 600 289 145 84 368 230 453 298
30 24 57 43 61 43 3 0 17 10 31 23 14 12 63 54 110 92 47 39 101 83 120 100
58 49 373 366 425 429 28 32 55 64 61 70 40 41 206 265 284 381 51 77 101 151
110 166 61 89 267 483 313 599 136 340 199 546 280 915 56 255 92 617 96 960
6 640 -89 1203 -297 1766 -234 629 -628 1226 -1116 1688 -32 31 -78 74 -101
97 -24 23 -69 63 -101 90 -32 27 -73 62 -91 78 -18 16 -44 37 -57 45 -13 9
-50 37 -83 62 -101 80 -362 253 -481 319 -15 8 -43 25 -62 37 -19 12 -107 57
-195 101 -717 357 -1511 521 -2290 471z"/>
<path d="M7825 8580 c3 -5 20 -19 38 -31 l32 -22 -29 31 c-28 30 -55 44 -41
22z"/>
</g>
</svg>
